# xmcd
# Copyright (C) 1995-1998 Ti Kan
#
# Track frame offsets:
#       150
#       19135
#       33514
#       53419
#       70989
#       79440
#       99370
#       128540
#       149311
#       172803
#       188018
#       203832
#       210593
#
# Disc length: 3237 seconds
#
# Revision: 0
# Processed by: cddbd v1.5.2PL0 Copyright (c) Steve Scherf et al.
# Submitted via: CD-Import v1.0
#
DISCID=a90ca30d
DTITLE=Navel - Frozen Souls
DYEAR=08
DGENRE=
TTITLE0=Frozen Souls
TTITLE1=Lovetrap
TTITLE2=Keep Me Dry
TTITLE3=Somehow
TTITLE4=So Much Left To Say
TTITLE5=Is It You
TTITLE6=For A While
TTITLE7=Blue World
TTITLE8=Out Of My Way
TTITLE9=Dressed In Satin
TTITLE10=Vomiting
TTITLE11=No Name No.12
TTITLE12=No Harm
EXTD=
EXTT0=
EXTT1=
EXTT2=
EXTT3=
EXTT4=
EXTT5=
EXTT6=
EXTT7=
EXTT8=
EXTT9=
EXTT10=
EXTT11=
EXTT12=
PLAYORDER=
